<svg xmlns="http://www.w3.org/2000/svg" xmlns:svgjs="http://svgjs.com/svgjs" xmlns:xlink="http://www.w3.org/1999/xlink" width="288" height="288"><svg xmlns="http://www.w3.org/2000/svg" width="288" height="288" enable-background="new 0 0 422.097 422.097" viewBox="0 0 422.097 422.097"><path fill="#005caf" d="M260.512 178.992c32.487-21.778 72.919-48.881 72.919-103.243C333.431 33.982 299.452 0 257.684 0c-17.171 0-33.385 5.631-46.636 16.038C197.8 5.632 181.584 0 164.414 0c-41.768 0-75.749 33.981-75.749 75.749 0 54.544 40.135 81.503 72.386 103.164 18.123 12.175 35.244 23.673 39.502 36.633 1.492 4.541 5.729 7.597 10.491 7.597.075 0 .151 0 .223-.001 4.853-.099 9.075-3.351 10.404-8.018C225.229 202.642 242.366 191.154 260.512 178.992zM165.894 33.2c-21.977 6.309-36.74 25.061-36.74 46.66 0 7.418 1.726 14.542 5.136 21.172.873 1.703.489 3.782-.938 5.058-.793.71-1.796 1.071-2.805 1.071-.807 0-1.617-.231-2.324-.701-12.78-8.477-20.409-22.361-20.409-37.137 0-24.973 21.417-45.289 47.741-45.289 3.363 0 6.732.336 10.015 1.001 1.897.384 3.29 2.018 3.367 3.954C169.013 30.926 167.758 32.665 165.894 33.2zM178.537 358.348c-1.589-3.889-3.367-7.736-5.286-11.441-12.563-24.272-29.815-40.471-46.504-56.137-4.703-4.412-10.692-11.316-17.034-18.625-9.258-10.666-18.832-21.695-25.265-25.902-5.829-3.81-10.592-3.916-14.16-.312-5.202 5.257-3.667 15.048 4.978 31.75 5.777 11.164 14.154 24.312 23.024 38.231 1.425 2.236 2.872 4.511 4.329 6.806-15.709-17.183-27.246-32.808-34.344-46.521-8.152-15.748-9.811-27.916-4.667-34.26 3.632-4.482 10.545-5.596 19.465-3.136l1.322.363-.319-1.335c-.165-.692-16.648-69.361-20.13-82.358-.766-2.867-1.833-5.63-3.17-8.212-4.801-9.276-12.388-14.907-18.042-13.39-2.729.734-7.223 3.835-6.631 16.398l8.583 108.402c.44 3.54.749 7.247 1.077 11.176 1.001 12.01 2.038 24.43 6.953 33.924 2.044 3.95 4.413 7.52 7.24 10.906 5.091 6.102 19.25 20.835 34.242 36.432 14.593 15.183 29.684 30.883 35.195 37.438 4.323 5.145 8.064 10.812 11.44 17.336 2.719 5.252 5 10.672 7.038 16.215h52.745l-.792-2.692C193.489 397.871 186.524 377.898 178.537 358.348zM379.364 133.87c-5.654-1.517-13.241 4.114-18.042 13.39-1.338 2.583-2.405 5.346-3.172 8.212-3.48 12.997-19.965 81.667-20.13 82.358l-.318 1.335 1.321-.363c8.92-2.46 15.833-1.347 19.466 3.136 5.143 6.344 3.484 18.512-4.667 34.26-7.1 13.713-18.636 29.338-34.345 46.521 1.458-2.294 2.904-4.569 4.329-6.806 8.87-13.92 17.247-27.067 23.024-38.231 8.645-16.7 10.18-26.493 4.978-31.75-3.567-3.604-8.332-3.498-14.16.312-6.433 4.207-16.007 15.236-25.265 25.902-6.342 7.309-12.332 14.213-17.034 18.625-16.688 15.666-33.941 31.863-46.504 56.137-1.919 3.705-3.697 7.554-5.286 11.441-7.987 19.55-14.952 39.522-21.288 61.057l-.792 2.692h52.745c2.038-5.543 4.319-10.963 7.038-16.215 3.376-6.522 7.117-12.191 11.44-17.336 5.511-6.556 20.603-22.256 35.194-37.438 14.992-15.597 29.151-30.332 34.242-36.432 2.827-3.387 5.196-6.956 7.24-10.907 4.915-9.493 5.952-21.913 6.953-33.923.328-3.93.637-7.636 1.077-11.176l8.583-108.402C386.588 137.705 382.093 134.604 379.364 133.87z" class="color000 svgShape"/></svg></svg>