<svg xmlns="http://www.w3.org/2000/svg" xmlns:svgjs="http://svgjs.com/svgjs" xmlns:xlink="http://www.w3.org/1999/xlink" width="288" height="288"><svg xmlns="http://www.w3.org/2000/svg" width="288" height="288" enable-background="new 0 0 434.721 434.721" viewBox="0 0 434.721 434.721"><path fill="#005caf" d="M126.485 149.111v65.93c0 18.387 14.959 33.348 33.346 33.348h33.347v-65.418h48.366v65.418h33.348c18.387 0 33.346-14.961 33.346-33.348v-65.928c6.006-1.392 11.519-4.438 15.987-8.904 13-13.001 13-34.158 0-47.159L240.941 9.768C234.643 3.468 226.27 0 217.361 0c-8.908 0-17.282 3.468-23.581 9.768L110.498 93.05c-13 13.001-13 34.158.002 47.159C114.965 144.676 120.479 147.719 126.485 149.111zM184.849 370.971c-1.589-3.889-3.367-7.736-5.286-11.441-12.563-24.272-29.815-40.471-46.504-56.137-4.702-4.412-10.692-11.316-17.034-18.625-9.258-10.666-18.832-21.695-25.265-25.902-5.829-3.81-10.592-3.916-14.16-.312-5.202 5.257-3.667 15.048 4.978 31.75 5.777 11.163 14.154 24.312 23.024 38.231 1.425 2.236 2.872 4.51 4.329 6.805-15.709-17.182-27.246-32.807-34.344-46.52-8.152-15.748-9.811-27.918-4.667-34.262 3.632-4.48 10.545-5.595 19.465-3.135l1.322.363-.319-1.336c-.165-.69-16.648-69.36-20.13-82.357-.766-2.866-1.834-5.63-3.171-8.213-4.801-9.275-12.388-14.906-18.042-13.39-2.729.733-7.223 3.835-6.631 16.398l8.583 108.402c.44 3.539.749 7.246 1.077 11.176 1.001 12.01 2.038 24.43 6.953 33.923 2.044 3.951 4.413 7.521 7.24 10.907 5.09 6.102 19.25 20.834 34.242 36.432 14.593 15.182 29.684 30.883 35.195 37.438 4.323 5.145 8.064 10.814 11.44 17.336 2.719 5.252 5 10.674 7.038 16.217h52.745l-.792-2.693C199.801 410.492 192.836 390.521 184.849 370.971zM385.677 146.492c-5.654-1.517-13.241 4.114-18.042 13.39-1.338 2.583-2.405 5.347-3.172 8.213-3.48 12.997-19.965 81.667-20.13 82.358l-.318 1.335 1.321-.363c8.92-2.46 15.833-1.347 19.466 3.136 5.144 6.344 3.484 18.512-4.667 34.26-7.1 13.713-18.636 29.338-34.345 46.521 1.458-2.295 2.904-4.567 4.329-6.806 8.87-13.92 17.247-27.067 23.024-38.23 8.645-16.701 10.18-26.494 4.978-31.75-3.567-3.604-8.332-3.498-14.16.312-6.433 4.207-16.007 15.236-25.265 25.902-6.342 7.309-12.332 14.211-17.034 18.625-16.688 15.666-33.941 31.862-46.504 56.135-1.919 3.705-3.696 7.555-5.286 11.443-7.987 19.549-14.952 39.521-21.288 61.055l-.792 2.693h52.745c2.038-5.543 4.319-10.963 7.038-16.215 3.376-6.521 7.117-12.191 11.44-17.338 5.511-6.555 20.603-22.256 35.194-37.438 14.992-15.597 29.151-30.33 34.242-36.431 2.827-3.388 5.196-6.956 7.24-10.907 4.915-9.494 5.952-21.912 6.953-33.923.329-3.93.637-7.637 1.077-11.176l8.583-108.402C392.9 150.327 388.405 147.226 385.677 146.492z" class="color000 svgShape"/></svg></svg>